<?xml version="1.0" ?><!DOCTYPE svg  PUBLIC '-//W3C//DTD SVG 1.1//EN'
  'http://www.w3.org/Graphics/SVG/1.1/DTD/svg11.dtd'>
<svg xmlns="http://www.w3.org/2000/svg" xmlns:xlink="http://www.w3.org/1999/xlink" x="0px" y="0px" viewBox="0 0 611.999 611.999" style="enable-background:new 0 0 611.999 611.999;" xml:space="preserve">
  <path d="M607.242,156.375c-4.145-5.209-10.441-8.243-17.098-8.243h-68.262l33.411-33.411c17.069-17.071,17.069-44.746,0-61.817   c-17.071-17.071-44.748-17.071-61.817,0l-95.226,95.228h-184.5l-95.226-95.228c-17.069-17.071-44.746-17.069-61.817,0   c-17.071,17.071-17.071,44.746,0,61.817l33.411,33.411H21.855c-6.657,0-12.953,3.034-17.098,8.243   c-4.147,5.207-5.692,12.023-4.201,18.511L87.977,554.94c2.282,9.925,11.116,16.957,21.299,16.957h393.443   c10.183,0,19.017-7.033,21.299-16.957l87.423-380.054C612.936,168.398,611.389,161.584,607.242,156.375z M382.494,390.012h-46.496   v46.498c0,16.567-13.432,29.999-29.999,29.999S276,453.079,276,436.51v-46.498h-46.496c-16.567,0-29.999-13.43-29.999-29.999   s13.43-29.999,29.999-29.999H276v-46.495c0-16.567,13.432-29.999,29.999-29.999s29.999,13.43,29.999,29.999v46.496h46.496   c16.567,0,29.999,13.432,29.999,29.999S399.061,390.012,382.494,390.012z" fill="#29aee3"></path>
</svg>
