<svg xmlns="http://www.w3.org/2000/svg" viewBox="0 0 512 512"><path d="M256 11.817c-92.519 0-167.787 75.27-167.787 167.789 0 5.025.237 10.187.705 15.344a15 15 0 0 0 21.223 12.266c18.135-8.367 37.53-12.609 57.648-12.609 28.7 0 56.205 8.737 79.541 25.267a14.98 14.98 0 0 0 8.67 2.76c3.036 0 6.073-.92 8.67-2.76 23.336-16.529 50.842-25.267 79.543-25.267 20.118 0 39.514 4.242 57.648 12.609a15 15 0 0 0 21.223-12.265c.468-5.157.705-10.319.705-15.345 0-92.519-75.269-167.789-167.789-167.789z" fill="#6ebc4a"/><path d="M264.67 444.916c-36.471-25.834-58.244-67.898-58.244-112.522 0-4.124.196-8.375.582-12.633a15.003 15.003 0 0 0-8.654-14.976c-44.64-20.596-75.125-63.721-79.559-112.546a14.997 14.997 0 0 0-7.434-11.631 14.997 14.997 0 0 0-13.789-.633c-28.712 13.247-53.047 34.274-70.373 60.811C9.405 268.038 0 299.716 0 332.394c0 92.52 75.27 167.789 167.789 167.789 34.948 0 68.45-10.645 96.882-30.786a15 15 0 0 0-.001-24.481z" fill="#ff598b"/><path d="M264.67 195.393c-28.433-20.141-61.934-30.786-96.881-30.786-24.489 0-48.114 5.171-70.217 15.369a14.998 14.998 0 0 0-8.654 14.977c5.4 59.475 42.518 111.998 96.867 137.073a14.993 14.993 0 0 0 13.789-.633 15 15 0 0 0 7.434-11.631c3.641-40.102 24.658-76.51 57.662-99.889a14.999 14.999 0 0 0 0-24.48z" fill="#ffd97d"/><path d="M484.802 240.786c-17.326-26.535-41.66-47.563-70.372-60.811a15 15 0 0 0-21.223 12.264c-4.434 48.824-34.919 91.949-79.559 112.545a14.998 14.998 0 0 0-8.654 14.975c.386 4.26.582 8.511.582 12.635 0 44.624-21.774 86.688-58.246 112.522a14.997 14.997 0 0 0-.001 24.48c28.432 20.141 61.934 30.786 96.884 30.786 92.519 0 167.787-75.27 167.787-167.789 0-32.677-9.405-64.355-27.198-91.607z" fill="#09426d"/><path d="M414.43 179.976c-22.103-10.198-45.728-15.369-70.217-15.369-34.948 0-68.45 10.646-96.883 30.786a14.999 14.999 0 0 0 0 24.48c33.005 23.379 54.023 59.786 57.664 99.888a14.998 14.998 0 0 0 21.223 12.264c54.35-25.075 91.467-77.599 96.867-137.072a15 15 0 0 0-8.654-14.977z" fill="#91e1ff"/><path d="M334.871 317.05a15 15 0 0 0-21.223-12.266c-18.135 8.367-37.53 12.609-57.648 12.609-20.117 0-39.513-4.242-57.646-12.608a15 15 0 0 0-21.223 12.265 170.491 170.491 0 0 0-.705 15.344c0 54.339 26.506 105.555 70.904 137.003a14.98 14.98 0 0 0 8.67 2.76c3.036 0 6.073-.92 8.67-2.76 44.399-31.448 70.906-82.664 70.906-137.003 0-5.025-.237-10.187-.705-15.344z" fill="#ffb8aa"/><path d="M334.871 317.048c-4.436-48.855-30.022-93.196-70.201-121.655a15 15 0 0 0-17.341 0c-40.176 28.459-65.763 72.801-70.198 121.656a15.001 15.001 0 0 0 8.654 14.977c22.104 10.197 45.727 15.368 70.215 15.368 24.489 0 48.113-5.171 70.217-15.369a15.002 15.002 0 0 0 8.654-14.977z" fill="#c7efff"/></svg>